<svg xmlns="http://www.w3.org/2000/svg" viewBox="0 0 200 200" fill="none" stroke="#7B1818" stroke-width="2.5" stroke-linecap="round" stroke-linejoin="round">
  <!-- Endless Knot / Shrivatsa - simplified geometric -->
  <path d="M60 40 L60 80 L40 80 L40 120 L60 120 L60 160 L80 160 L80 120 L120 120 L120 160 L140 160 L140 120 L160 120 L160 80 L140 80 L140 40 L120 40 L120 80 L80 80 L80 40 Z" />
  <path d="M80 60 L80 80 L60 80 L60 100 L80 100 L80 120 L100 120 L100 140 L120 140 L120 120 L140 120 L140 100 L120 100 L120 80 L100 80 L100 60 Z" />
  <!-- Interlocking loops -->
  <path d="M70 50 Q70 30 90 30 Q110 30 110 50" />
  <path d="M70 150 Q70 170 90 170 Q110 170 110 150" />
  <path d="M50 70 Q30 70 30 90 Q30 110 50 110" />
  <path d="M150 70 Q170 70 170 90 Q170 110 150 110" />
  <!-- Inner crossings -->
  <circle cx="100" cy="100" r="8" stroke-width="2" />
  <path d="M92 92 L108 108 M108 92 L92 108" stroke-width="1.5" />
</svg>